<?xml version="1.0" encoding="utf-8"?>
<!DOCTYPE svg PUBLIC "-//W3C//DTD SVG 1.0//EN" "http://www.w3.org/TR/2001/REC-SVG-20010904/DTD/svg10.dtd">
<svg version="1.0" xmlns="http://www.w3.org/2000/svg" width="296px" height="311px" viewBox="0 0 296 311" preserveAspectRatio="xMidYMid meet">
 <g fill="#ffffff">
  <path d="M164 293.5 c-33.8 -7.4 -51.5 -11.1 -72 -15.4 -41.6 -8.8 -46.5 -10.6 -58 -22.1 -7.5 -7.4 -11.9 -15.2 -14.9 -26 -2.7 -9.7 -2.6 -16.9 0.3 -31 15.9 -76.1 25.1 -118.2 26.7 -122.6 8.4 -22.3 31.2 -37.2 55.6 -36.2 10.5 0.4 10.6 1.4 1.9 9.8 -6.7 6.5 -12.8 16.5 -15.9 26.5 -1.3 3.9 -4.7 20.2 -4.7 22.1 0 0.2 1.1 0.4 2.4 0.4 2.6 0 6.4 3.8 9.4 9.4 l1.6 3.1 0.8 -8.4 c0.4 -4.6 0.9 -8.9 1.2 -9.6 0.2 -0.7 2.4 -1.7 4.8 -2.3 6.9 -1.8 9.6 -5.4 11.3 -15.2 2.1 -11.9 2.3 -12.1 21.3 -16.1 8.6 -1.8 12.6 -2 23 -1.7 15.1 0.6 23.2 2.9 30.7 8.6 6.1 4.6 9 8.8 11.5 16.6 1 3.4 1.9 5.4 1.9 4.6 0.1 -3 -3.8 -19 -5.3 -21.9 -0.9 -1.6 -1.6 -4.5 -1.6 -6.2 l0 -3.2 2.3 2.1 c1.3 1.2 3.4 2.2 4.8 2.2 6 0.1 34.2 7 40.6 10.1 8.6 4.1 20.5 15.7 25 24.4 8.4 16.4 8.2 25.8 -1 69.5 -4.4 20.7 -6.2 31 -5.6 32.2 1.4 2.5 1.1 3.5 -1.1 4.1 -1.1 0.3 -2 1.4 -2 2.4 0 1.1 -2.5 13.9 -5.6 28.4 -6.6 31.4 -9.5 38.7 -19.2 48.4 -11.8 11.7 -22.9 16.6 -39.2 17.1 -9.4 0.3 -12.6 -0.1 -31 -4.1z"/>
 </g>
 <g fill="#00433f">
  <path d="M164.4 279.9 c-0.3 -0.6 0.5 -2.3 1.9 -3.7 1.4 -1.5 4.8 -6.3 7.5 -10.7 15 -24.3 20.7 -42.8 21.8 -71 0.6 -15.1 0.8 -15.7 3 -14.8 1.5 0.6 1.6 2.2 1.1 16.2 -1.1 28.7 -7.3 48.1 -23.2 73.1 -7.1 11.2 -10.2 14 -12.1 10.9z"/>
  <path d="M120.7 266.5 c-0.4 -0.9 1.1 -2.8 4.3 -5.2 2.7 -2.1 4.9 -4 4.9 -4.3 0.1 -0.3 -2.1 -1.7 -4.7 -3.1 -12.1 -6.8 -28 -21.2 -38 -34.7 -6.2 -8.4 -16.1 -26.9 -18.3 -34.2 -0.7 -2.2 -1.6 -4 -2 -4 -0.4 0 -6.9 2 -14.5 4.4 -7.6 2.5 -14.1 4.3 -14.6 4 -0.4 -0.3 -0.8 -1.1 -0.8 -1.8 0 -1.5 5.6 -3.7 21.6 -8.6 8.7 -2.7 10.3 -3.6 11.9 -6.3 1 -1.7 5 -6.2 8.7 -10 l6.9 -6.8 -1.3 -4.7 c-1.2 -4 -1.8 -4.7 -4.1 -5 -4.6 -0.5 -6.1 -4.1 -5.3 -12.3 0.4 -4.3 0.2 -9.4 -0.5 -12.8 -1.5 -6.9 -0.5 -13.9 2.4 -18.3 1.5 -2.2 2.8 -7 4 -14.1 1 -5.9 2.6 -13.1 3.6 -16 5.5 -16 15.4 -28.3 26.6 -33.3 4.8 -2.2 6.3 -3.3 5.8 -4.4 -0.3 -0.8 -0.8 -3.1 -1 -5 -0.9 -7.2 7.6 -12.5 15.9 -10.1 3.5 1.1 4 1 8.3 -2.3 5.3 -4.1 10.3 -5.3 14.4 -3.6 3.7 1.5 6.5 7.1 5.8 11.6 -0.5 2.9 -0.2 3.4 2.2 4.2 5.5 1.9 21.4 12.6 26.5 17.7 9.8 9.9 14.1 20 16.6 38.8 0.7 5.2 0.8 9.1 0.2 10.7 -1 2.8 -0.2 9.7 2.3 18 2 6.8 1.4 17.4 -1.4 23.3 -1 2.3 -2.4 7.9 -3.1 12.5 -0.6 4.6 -1.7 10.2 -2.4 12.6 l-1.3 4.2 6.6 2.3 c17.7 6.2 50.6 22.5 55.1 27.4 5 5.3 0.7 4.9 -8.4 -0.8 -12 -7.4 -49.8 -24.5 -54.3 -24.5 -0.4 0 -2.1 2.3 -3.7 5.2 -3.8 6.6 -8.7 12 -14.2 15.5 -2.4 1.5 -4.4 3.5 -4.4 4.3 0 2.9 -10.2 22.6 -16.7 32.3 -7.1 10.7 -21 25.9 -30.8 33.7 -6.7 5.3 -8 5.8 -8.8 3.5z m29.8 -31.6 c-0.4 -0.5 -4.1 -3.5 -8.3 -6.6 -11 -8.1 -21.6 -19.2 -30 -31.3 -4 -5.8 -9.7 -13.4 -12.6 -16.9 -3 -3.6 -6.8 -9.3 -8.6 -12.8 -3.7 -7.5 -4.2 -7.4 -11.7 1.2 -9.1 10.6 -8.9 9.4 -3.4 22.2 10.6 24.7 29.3 46.2 51.9 60 l5.7 3.4 8.8 -9.1 c4.8 -5 8.5 -9.5 8.2 -10.1z m7.7 -10 c4.2 -6.1 14.3 -25.8 13.5 -26.5 -0.2 -0.2 -1.7 0 -3.3 0.7 -4.8 1.8 -17.2 3.9 -23.3 3.9 -6.7 0 -15.5 -2.1 -23 -5.6 -3 -1.3 -5.5 -2.3 -5.7 -2.1 -0.2 0.2 2.5 3.9 6 8.4 7.3 9.2 28.5 27.6 31.1 26.9 0.6 -0.1 2.7 -2.7 4.7 -5.7z m4 -28.5 c7.9 -2 18.6 -7.5 22.6 -11.7 6.6 -6.9 13.1 -20.6 14.5 -30.9 0.5 -3.3 0.3 -3.8 -1.4 -3.8 -2.6 0 -2.4 -1.4 1.2 -6.6 1.6 -2.4 3.7 -6.1 4.6 -8.2 2.1 -5 2.2 -16.5 0.1 -22.2 -0.9 -2.5 -2.1 -7.9 -2.7 -12 -1.3 -9.5 -4.4 -19.7 -7.4 -24.1 -8.9 -13.2 -31.2 -18.9 -54.8 -14 -19.1 4 -19.3 4.2 -21.4 16.1 -1.7 9.8 -4.4 13.5 -11.2 15.2 -2.4 0.6 -4.6 1.5 -4.9 2 -0.3 0.5 -0.9 5.7 -1.2 11.6 -0.7 10.6 -0.7 10.7 -3.2 10.7 -1.7 0 -2.6 -0.6 -2.9 -2 -0.4 -2.5 -6.2 -11.5 -8.5 -13.5 -1.6 -1.3 -2 -1.2 -3.7 0.9 -3.2 3.9 -4.2 9.7 -2.9 16.5 0.6 3.4 1 9.5 0.8 13.6 l-0.3 7.5 3 0.3 c2.2 0.2 3.7 -0.4 5.5 -2.3 1.3 -1.4 2.9 -2.5 3.6 -2.5 2.7 0 2.5 2.3 -0.6 5.5 -3.2 3.3 -3.3 3.4 -2.1 8.1 3.2 12.5 12.9 28 22.3 35.5 14.5 11.5 32.4 15.1 51 10.3z"/>
  <path d="M145.7 185.6 c-6.1 -2.2 -9.3 -5.2 -7.5 -7.3 0.8 -1 1.6 -0.9 3.7 0.6 6 4.3 15.8 4.9 25.5 1.5 4.9 -1.8 6.6 -1.8 6.6 0.1 0 4.7 -19.5 8.2 -28.3 5.1z"/>
  <path d="M154.3 168.4 c-1.8 -0.8 -1.6 -3.1 0.3 -3.8 4.6 -1.8 12.2 0.1 9.8 2.4 -1.2 1 -8.5 2 -10.1 1.4z"/>
  <path d="M146 159.6 c0 -0.8 1.5 -2.6 3.3 -3.9 2.7 -2.1 4.3 -2.5 9.9 -2.5 7.8 0.1 13.9 2.8 11.8 5.3 -1 1.2 -1.7 1.2 -3.9 0.2 -3.8 -1.8 -13.7 -1.4 -15.9 0.6 -2.3 2.1 -5.2 2.2 -5.2 0.3z"/>
  <path d="M106.5 150.3 c-3.6 -4.7 -4 -6.6 -1.4 -7 1.7 -0.3 9.3 9.3 8.4 10.7 -1.3 2 -3.5 0.9 -7 -3.7z"/>
  <path d="M156 144.8 c-1.4 -0.6 -4.1 -1.1 -6 -1.2 -2.7 -0.1 -3.5 -0.6 -3.5 -2.1 0 -2.8 3.7 -3.1 10.2 -0.9 5.2 1.8 5.5 1.8 8.8 0 3.6 -2 6.8 -1.6 5.9 0.7 -0.7 1.9 -6.9 4.7 -10.2 4.6 -1.5 0 -3.8 -0.5 -5.2 -1.1z"/>
  <path d="M87 129.9 c-0.7 -1.3 -1 -3.9 -0.7 -6.3 0.4 -2.9 0 -5.4 -1.3 -8.3 -1.5 -3.4 -1.6 -4.4 -0.6 -5.3 1.6 -1.2 2.4 -0.4 5.6 5.9 1.7 3.5 2 4.8 1.1 7 -0.6 1.4 -1 3.9 -0.8 5.5 0.3 3.6 -1.8 4.5 -3.3 1.5z"/>
  <path d="M137.8 119.1 c-1 -1.5 -2.8 -2.1 -6.8 -2.3 -4.3 -0.2 -5.6 -0.7 -5.8 -2 -0.3 -1.6 0.6 -1.8 9 -1.8 12.8 0 16.8 0.8 16.8 3.1 0 1.2 -0.7 1.9 -1.9 1.9 -1 0 -2.4 0.7 -3.1 1.5 -1.8 2.1 -6.6 1.9 -8.2 -0.4z"/>
  <path d="M181.6 116.5 c-0.9 -0.9 -3.4 -1.5 -6.6 -1.5 -4.4 0 -5.1 -0.3 -4.8 -1.7 0.5 -2.6 19.1 -4.4 21.4 -2.1 1.3 1.3 1.1 1.8 -2 4.1 -4 3.1 -5.8 3.3 -8 1.2z"/>
  <path d="M138.5 106 c-8.4 -1.1 -11 -1.9 -11 -3 0 -2.1 4.3 -2.4 14 -1 7.5 1.1 10.5 2.2 10.5 4 0 1.5 -2.7 1.5 -13.5 0z"/>
  <path d="M169 104.3 c0 -1.7 1.4 -2.4 8.5 -4.2 10.5 -2.6 14.8 -2.8 14.3 -0.4 -0.2 1.2 -2.5 2.2 -8.3 3.5 -14.7 3.3 -14.5 3.3 -14.5 1.1z"/>
  <path d="M226.6 247.8 c-0.3 -0.7 -1.5 -5.1 -2.7 -9.8 -1.2 -4.7 -5.3 -17 -9.1 -27.3 -5.2 -13.9 -6.7 -19.2 -5.9 -20 1.9 -1.9 3.6 1.1 9.9 18.3 9.9 27 12.6 38.6 9.5 39.7 -0.7 0.3 -1.5 -0.1 -1.7 -0.9z"/>
 </g>
</svg>